<?xml version="1.0" encoding="utf-8"?>
<!-- Generator: Adobe Illustrator 23.0.1, SVG Export Plug-In . SVG Version: 6.00 Build 0)  -->
<svg version="1.1" id="Layer_1" xmlns="http://www.w3.org/2000/svg" xmlns:xlink="http://www.w3.org/1999/xlink" x="0px" y="0px"
	 viewBox="0 0 1920 1080" style="enable-background:new 0 0 1920 1080;" xml:space="preserve">
<style type="text/css">
	.st0{fill:#FFFFFF;stroke:#000000;stroke-width:12;stroke-miterlimit:10;}
	.st1{fill:#FFFFFF;}
</style>
<path class="st0" d="M899.51,261.28c-1.08-0.01-2.15-0.04-3.23-0.04s-2.15,0.03-3.23,0.04c-136.58,1.73-246.77,112.97-246.77,249.96
	S756.48,759.47,893.06,761.2c-67.54-1.71-121.77-57-121.77-124.96c0-69.04,55.96-125,125-125s125,55.96,125,125
	c0,67.96-54.23,123.25-121.77,124.96c136.58-1.73,246.77-112.97,246.77-249.96S1036.09,263.01,899.51,261.28z M858.79,386.24
	c0-20.71,16.79-37.5,37.5-37.5s37.5,16.79,37.5,37.5c0,20.71-16.79,37.5-37.5,37.5S858.79,406.95,858.79,386.24z"/>
<path class="st1" d="M899.51,261.28c67.54,1.71,121.77,57,121.77,124.96c0,69.04-55.96,125-125,125c69.04,0,125,55.96,125,125
	c0,67.96-54.23,123.25-121.77,124.96c136.58-1.73,246.77-112.97,246.77-249.96S1036.09,263.01,899.51,261.28z"/>
<path class="st1" d="M1021.29,636.22c0-69.02-55.96-124.98-125-124.98s-125,55.96-125,124.98c0,67.95,54.23,123.23,121.77,124.94
	c1.08,0.01,2.15,0.04,3.23,0.04s2.15-0.03,3.23-0.04C967.06,759.45,1021.29,704.16,1021.29,636.22z M896.29,673.71
	c-20.71,0-37.5-16.79-37.5-37.49s16.79-37.49,37.5-37.49s37.5,16.79,37.5,37.49S917,673.71,896.29,673.71z"/>
<circle cx="896.29" cy="636.24" r="37.5"/>
<path d="M771.29,636.24c0-69.04,55.96-125,125-125c-69.04,0-125-55.96-125-125c0-67.96,54.23-123.25,121.77-124.96
	c-136.58,1.73-246.77,112.97-246.77,249.96S756.48,759.47,893.06,761.2C825.51,759.49,771.29,704.2,771.29,636.24z"/>
<path d="M771.29,386.24c0,69.04,55.96,125,125,125s125-55.96,125-125c0-67.96-54.23-123.25-121.77-124.96
	c-1.08-0.01-2.15-0.04-3.23-0.04s-2.15,0.03-3.23,0.04C825.51,262.99,771.29,318.28,771.29,386.24z M896.29,348.74
	c20.71,0,37.5,16.79,37.5,37.5c0,20.71-16.79,37.5-37.5,37.5s-37.5-16.79-37.5-37.5C858.79,365.53,875.58,348.74,896.29,348.74z"/>
<circle class="st1" cx="896.29" cy="386.24" r="37.5"/>
</svg>
